# 
# Generated by Sweet Home 3D - Sun Feb 10 16:44:25 CST 2019
# http://www.sweethome3d.com/
# 
mtllib MedRoom.mtl
g ground_1
usemtl ground_1
v 176.95453 0.0 180.2948
v 176.95453 0.0 188.46826
v 725.59454 0.0 188.46826
v 725.59454 0.0 737.1083
v 176.95453 0.0 737.10834
v 176.95453 0.0 740.9495
v 734.5895 0.0 740.9495
v 734.5895 0.0 180.2948
vn 0.0 1.0 0.0
vn 0.0 0.0 0.0
f 5//1 6//1 7//1
f 4//1 5//1 7//1
f 4//1 7//1 8//1
f 3//1 4//1 8//1
f 3//1 8//1 1//1
f 3//1 1//1 2//1
g wall_1_2
usemtl wall_1_2
v 182.15454 0.0 180.2948
v 182.12411 0.0 184.10468
v 728.5823 0.0 188.46826
v 732.3774 0.0 184.68845
vn 0.0 -1.0 0.0
f 12//3 11//3 10//3
f 12//3 10//3 9//3
g wall_1_3
usemtl wall_1_2
v 182.09369 0.0 187.91455
v 724.78723 0.0 192.24808
f 11//3 14//3 13//3
f 11//3 13//3 10//3
g wall_1_4
usemtl wall_1_2
v 182.12411 243.84 184.10468
v 182.15454 243.84 180.2948
v 732.3774 243.84 184.68845
v 728.5823 243.84 188.46826
vn -0.9999682 0.0 -0.007985841
vn 0.7056781 0.0 0.7085326
vn 0.007984958 0.0 -0.9999681
f 9//4 10//4 15//4 16//4
f 11//5 12//5 17//5 18//5
f 12//6 9//6 16//6 17//6
g wall_1_5
usemtl wall_1_2
v 182.09369 243.84 187.91455
v 724.78723 243.84 192.24808
vn -0.007984964 0.0 0.9999681
vn 0.7056838 0.0 0.7085269
f 10//4 13//4 19//4 15//4
f 13//7 14//7 20//7 19//7
f 14//8 11//8 18//8 20//8
g wall_1_6
usemtl wall_1_2
f 16//1 15//1 18//1
f 16//1 18//1 17//1
g wall_1_7
usemtl wall_1_2
f 15//1 19//1 20//1
f 15//1 20//1 18//1
g wall_2_8
usemtl wall_1_2
v 728.5823 0.0 188.46141
v 730.7642 0.0 737.10156
v 734.58954 0.0 740.9375
f 23//3 22//3 21//3
f 23//3 21//3 12//3
g wall_2_9
usemtl wall_1_2
v 724.78723 0.0 192.23438
v 726.9389 0.0 733.2656
f 22//3 25//3 24//3
f 22//3 24//3 21//3
g wall_2_10
usemtl wall_1_2
v 728.5823 243.84 188.46141
v 734.58954 243.84 740.9375
v 730.7642 243.84 737.10156
vn -0.7050351 0.0 -0.70917237
vn -0.7080863 0.0 0.7061259
vn 0.9999921 0.0 -0.003976889
f 12//9 21//9 26//9 17//9
f 22//10 23//10 27//10 28//10
f 23//11 12//11 17//11 27//11
g wall_2_11
usemtl wall_1_2
v 724.78723 243.84 192.23438
v 726.9389 243.84 733.2656
vn -0.7050408 0.0 -0.7091667
vn -0.9999921 0.0 0.0039769514
f 21//12 24//12 29//12 26//12
f 24//13 25//13 30//13 29//13
f 25//10 22//10 28//10 30//10
g wall_2_12
usemtl wall_1_2
f 17//1 26//1 28//1
f 17//1 28//1 27//1
g wall_2_13
usemtl wall_1_2
f 26//1 29//1 30//1
f 26//1 30//1 28//1
g wall_3_14
usemtl wall_1_2
v 194.46588 0.0 732.74475
v 194.43488 0.0 736.5546
v 734.58954 0.0 740.9495
v 730.7642 0.0 737.10754
f 34//3 33//3 32//3
f 34//3 32//3 31//3
g wall_3_15
usemtl wall_1_2
v 194.49689 0.0 728.9349
f 25//3 34//3 31//3
f 25//3 31//3 35//3
g wall_3_16
usemtl wall_1_2
v 194.43488 243.84 736.5546
v 194.46588 243.84 732.74475
v 734.58954 243.84 740.9495
v 730.7642 243.84 737.10754
vn -0.99996686 0.0 -0.008138018
vn -0.008136098 0.0 0.99996686
vn 0.70864177 0.0 -0.70556843
f 31//14 32//14 36//14 37//14
f 32//15 33//15 38//15 36//15
f 33//16 34//16 39//16 38//16
g wall_3_17
usemtl wall_1_2
v 194.49689 243.84 728.9349
vn 0.70863616 0.0 -0.7055741
vn 0.008133479 0.0 -0.999967
f 35//14 31//14 37//14 40//14
f 34//17 25//17 30//17 39//17
f 25//18 35//18 40//18 30//18
g wall_3_18
usemtl wall_1_2
f 37//1 36//1 38//1
f 37//1 38//1 39//1
g wall_3_19
usemtl wall_1_2
f 40//1 37//1 39//1
f 40//1 39//1 30//1
g wall_4_20
usemtl wall_1_2
v 182.12411 0.0 732.7447
v 178.31412 0.0 736.5547
v 225.76047 0.0 736.5547
v 225.76047 0.0 732.7447
f 44//3 43//3 42//3
f 44//3 42//3 41//3
g wall_4_21
usemtl wall_1_2
v 185.93411 0.0 728.9347
v 225.76047 0.0 728.9347
f 46//3 44//3 41//3
f 46//3 41//3 45//3
g wall_4_22
usemtl wall_1_2
v 178.31412 243.84 736.5547
v 182.12411 243.84 732.7447
v 225.76047 243.84 736.5547
v 225.76047 243.84 732.7447
vn -0.70710677 0.0 -0.70710677
vn 0.0 0.0 1.0
vn 1.0 0.0 0.0
f 41//19 42//19 47//19 48//19
f 42//20 43//20 49//20 47//20
f 43//21 44//21 50//21 49//21
g wall_4_23
usemtl wall_1_2
v 185.93411 243.84 728.9347
v 225.76047 243.84 728.9347
vn 0.0 0.0 -1.0
f 45//19 41//19 48//19 51//19
f 44//21 46//21 52//21 50//21
f 46//22 45//22 51//22 52//22
g wall_4_24
usemtl wall_1_2
f 48//1 47//1 49//1
f 48//1 49//1 50//1
g wall_4_25
usemtl wall_1_2
f 51//1 48//1 50//1
f 51//1 50//1 52//1
g wall_5_26
usemtl wall_1_2
v 178.31409 0.0 184.10468
v 182.12408 0.0 184.10468
f 54//3 41//3 42//3
f 54//3 42//3 53//3
g wall_5_27
usemtl wall_1_2
v 185.93408 0.0 184.10468
f 55//3 45//3 41//3
f 55//3 41//3 54//3
g wall_5_28
usemtl wall_1_2
v 178.31409 243.84 184.10468
v 182.12408 243.84 184.10468
vn -1.0 0.0 0.0000001
vn 0.70710677 0.0 0.70710677
f 53//23 42//23 47//23 56//23
f 42//24 41//24 48//24 47//24
f 54//22 53//22 56//22 57//22
g wall_5_29
usemtl wall_1_2
v 185.93408 243.84 184.10468
vn 1.0 0.0 -0.0000001
f 41//24 45//24 51//24 48//24
f 45//25 55//25 58//25 51//25
f 55//22 54//22 57//22 58//22
g wall_5_30
usemtl wall_1_2
f 56//1 47//1 48//1
f 56//1 48//1 57//1
g wall_5_31
usemtl wall_1_2
f 57//1 48//1 51//1
f 57//1 51//1 58//1
g room_6_32
usemtl wall_1_2
v 0.0 0.0 0.0
f 2//21 2//21 3//21
f 3//1 2//1 4//1
f 4//1 2//1 5//1
